<svg width="720" height="1024" viewBox="0 0 720 1024" fill="none" xmlns="http://www.w3.org/2000/svg">
<rect width="720" height="1024" fill="#355995"/>
<g clip-path="url(#clip0_363_3809)">
<path d="M1.52588e-05 139V155.11L13.14 147.06L1.52588e-05 139Z" fill="white"/>
<path d="M26.71 139V155.11L39.86 147.06L26.71 139Z" fill="white"/>
<path d="M53.4299 139V155.11L66.5699 147.06L53.4299 139Z" fill="white"/>
<path d="M80.14 139V155.11L93.29 147.06L80.14 139Z" fill="white"/>
<path d="M106.86 139V155.11L120 147.06L106.86 139Z" fill="white"/>
</g>
<g clip-path="url(#clip1_363_3809)">
<path d="M720 859V875.11L706.86 867.06L720 859Z" fill="white"/>
<path d="M693.29 859V875.11L680.14 867.06L693.29 859Z" fill="white"/>
<path d="M666.57 859V875.11L653.43 867.06L666.57 859Z" fill="white"/>
<path d="M639.86 859V875.11L626.71 867.06L639.86 859Z" fill="white"/>
<path d="M613.14 859V875.11L600 867.06L613.14 859Z" fill="white"/>
</g>
<path d="M462.079 359.694H212.323C206.68 359.694 202.105 364.268 202.105 369.91V663.913C202.105 669.555 206.68 674.129 212.323 674.129H462.079C467.722 674.129 472.297 669.555 472.297 663.913V369.91C472.297 364.268 467.722 359.694 462.079 359.694Z" fill="white"/>
<path opacity="0.6" d="M462.079 359.694H212.323C206.68 359.694 202.105 364.268 202.105 369.91V663.913C202.105 669.555 206.68 674.129 212.323 674.129H462.079C467.722 674.129 472.297 669.555 472.297 663.913V369.91C472.297 364.268 467.722 359.694 462.079 359.694Z" fill="white"/>
<path d="M428.519 503.89H245.869V535.152H428.519V503.89Z" fill="#EAC435"/>
<path d="M428.519 546.596H245.869V577.858H428.519V546.596Z" fill="#EAC435"/>
<path opacity="0.2" d="M428.519 609.762H245.869V641.025H428.519V609.762Z" fill="black"/>
<path d="M428.519 607.85H245.869V639.113H428.519V607.85Z" fill="#355995"/>
<g opacity="0.6">
<path d="M305.226 394.278L305.84 392.966C306.706 393.747 308.2 394.319 309.707 394.319C311.731 394.319 312.597 393.538 312.597 392.505C312.597 389.644 305.505 391.444 305.505 387.104C305.505 385.29 306.915 383.755 309.986 383.755C311.354 383.755 312.778 384.117 313.756 384.787L313.197 386.127C312.178 385.471 311.019 385.178 309.986 385.178C307.99 385.178 307.139 386.015 307.139 387.034C307.139 389.895 314.23 388.109 314.23 392.407C314.23 394.194 312.792 395.743 309.693 395.743C307.906 395.743 306.147 395.143 305.212 394.264L305.226 394.278Z" fill="white"/>
<path d="M316.185 384.006C316.185 383.42 316.659 382.945 317.273 382.945C317.888 382.945 318.362 383.392 318.362 383.964C318.362 384.564 317.916 385.039 317.273 385.039C316.631 385.039 316.185 384.592 316.185 384.006ZM316.464 386.755H318.069V395.631H316.464V386.755Z" fill="white"/>
<path d="M329.628 386.755V394.417C329.628 397.543 328.036 398.967 325.021 398.967C323.402 398.967 321.755 398.52 320.791 397.641L321.559 396.399C322.383 397.097 323.667 397.557 324.979 397.557C327.073 397.557 328.022 396.58 328.022 394.585V393.887C327.255 394.808 326.096 395.254 324.826 395.254C322.271 395.254 320.317 393.51 320.317 390.956C320.317 388.402 322.257 386.671 324.826 386.671C326.152 386.671 327.352 387.16 328.106 388.123V386.755H329.628ZM328.05 390.956C328.05 389.225 326.78 388.081 325.007 388.081C323.234 388.081 321.95 389.239 321.95 390.956C321.95 392.673 323.22 393.845 325.007 393.845C326.794 393.845 328.05 392.659 328.05 390.956Z" fill="white"/>
<path d="M341.117 390.509V395.617H339.511V390.691C339.511 388.946 338.646 388.095 337.124 388.095C335.421 388.095 334.304 389.114 334.304 391.04V395.603H332.699V386.727H334.235V388.067C334.891 387.16 336.022 386.643 337.431 386.643C339.595 386.643 341.117 387.886 341.117 390.495V390.509Z" fill="white"/>
<path d="M356.891 386.755V395.631H355.37V394.292C354.714 395.213 353.611 395.729 352.354 395.729C350.065 395.729 348.543 394.473 348.543 391.863V386.755H350.149V391.682C350.149 393.426 351.014 394.292 352.55 394.292C354.225 394.292 355.3 393.259 355.3 391.347V386.755H356.905H356.891Z" fill="white"/>
<path d="M369.148 391.179C369.148 393.915 367.25 395.715 364.667 395.715C363.411 395.715 362.308 395.227 361.568 394.278V398.869H359.963V386.755H361.498V388.165C362.224 387.174 363.355 386.671 364.667 386.671C367.264 386.671 369.148 388.486 369.148 391.193V391.179ZM367.529 391.179C367.529 389.309 366.244 388.067 364.527 388.067C362.81 388.067 361.554 389.309 361.554 391.179C361.554 393.049 362.838 394.305 364.527 394.305C366.217 394.305 367.529 393.063 367.529 391.179Z" fill="white"/>
</g>
<path d="M428.519 461.184H245.869V492.446H428.519V461.184Z" fill="#EAC435"/>
<path d="M428.519 418.464H245.869V449.726H428.519V418.464Z" fill="#EAC435"/>
<path d="M569.109 285H529.002C522.176 285 516.648 290.527 516.648 297.351V332.242C516.648 339.067 522.176 344.593 529.002 344.593H540.714L537.88 355.605L549.02 344.593H569.109C575.935 344.593 581.463 339.067 581.463 332.242V297.351C581.463 290.527 575.935 285 569.109 285Z" fill="#355995"/>
<path opacity="0.7" d="M569.109 285H529.002C522.176 285 516.648 290.527 516.648 297.351V332.242C516.648 339.067 522.176 344.593 529.002 344.593H540.714L537.88 355.605L549.02 344.593H569.109C575.935 344.593 581.463 339.067 581.463 332.242V297.351C581.463 290.527 575.935 285 569.109 285Z" fill="#355995"/>
<path d="M563.144 328.707C570.918 320.935 570.918 308.334 563.144 300.562C555.37 292.79 542.766 292.79 534.992 300.562C527.217 308.334 527.218 320.935 534.992 328.707C542.766 336.479 555.37 336.479 563.144 328.707Z" fill="white"/>
<path d="M546.968 323.533C546.438 323.533 545.921 323.296 545.572 322.891L537.769 313.694C537.113 312.927 537.21 311.768 537.978 311.112C538.746 310.456 539.905 310.554 540.561 311.322L546.982 318.872L557.578 306.395C558.234 305.627 559.393 305.53 560.16 306.186C560.928 306.842 561.026 308 560.37 308.768L548.378 322.891C548.029 323.296 547.527 323.533 546.982 323.533H546.968Z" fill="black"/>
<path d="M562.157 500.276C562.157 500.276 537.853 497.219 501.027 507.31C501.027 507.31 495.094 441.52 495.806 432.49C496.517 423.46 552.65 426.098 552.65 426.098C552.65 426.098 554.102 452.433 557.717 468.316C561.333 484.198 564.013 497.233 562.157 500.276Z" fill="#B5CCFF"/>
<path opacity="0.2" d="M562.157 500.276C562.157 500.276 537.853 497.219 501.027 507.31C501.027 507.31 495.094 441.52 495.806 432.49C496.517 423.46 552.65 426.098 552.65 426.098C552.65 426.098 554.102 452.433 557.717 468.316C561.333 484.198 564.013 497.233 562.157 500.276Z" fill="black"/>
<path d="M483.27 718.077L493.181 720.882L495.54 705.461L496.811 697.212L486.899 694.407L485.21 705.461L483.27 718.077Z" fill="#FDD2CB"/>
<path d="M540.254 718.887L550.472 720.24L550.57 705.461L550.64 696.277L540.407 694.938L540.337 705.461L540.254 718.887Z" fill="#FDD2CB"/>
<path opacity="0.2" d="M540.407 694.938L540.337 705.461H550.57L550.64 696.277L540.407 694.938Z" fill="black"/>
<path opacity="0.2" d="M485.21 705.461H495.54L496.811 697.212L486.899 694.407L485.21 705.461Z" fill="black"/>
<path d="M439.268 437.821L429.427 434.918L431.227 446.153C431.227 446.153 440.162 448.219 441.027 443.571L439.268 437.821Z" fill="#FDD2CB"/>
<path d="M419.599 437.528L424.429 446.656L431.227 446.153L429.427 434.918L419.599 437.528Z" fill="#FDD2CB"/>
<path d="M452.851 440.696L436.686 437.082L435.22 444.925L449.892 448.498L452.851 440.696Z" fill="#FDD2CB"/>
<path d="M501.752 433.62C501.752 433.62 501.403 434.039 500.803 434.751C498.765 437.137 493.781 442.901 488.672 447.87C484.484 451.917 480.24 455.448 477.476 456.16C469.561 458.197 440.79 449.726 440.79 449.726L443.763 438.058C443.763 438.058 470.566 441.617 472.646 441.617C474.224 441.617 490.529 418.003 494.479 416.063L501.752 433.62Z" fill="#E1ECFF"/>
<path opacity="0.2" d="M500.803 434.751C498.765 437.137 493.781 442.901 488.672 447.87C489.705 439.691 492.707 432.183 496.657 427.438C497.076 426.935 497.495 426.517 497.914 426.21L500.803 434.751Z" fill="black"/>
<path d="M483.381 716.542L494.633 716.235C495.052 716.235 495.429 716.5 495.54 716.905L497.899 725.963C498.151 726.898 497.453 727.819 496.476 727.833C492.413 727.875 486.536 727.791 481.427 727.93C475.466 728.098 471.669 727.805 464.661 727.986C460.431 728.098 459.105 723.869 460.864 723.436C468.863 721.469 474.098 721.859 480.91 717.393C481.65 716.905 482.474 716.556 483.367 716.528L483.381 716.542Z" fill="#222222"/>
<path d="M482.418 717.979C482.418 717.979 482.404 717.979 482.39 717.979C480.743 718.356 477.797 718.831 476.639 717.868C476.29 717.575 476.122 717.184 476.136 716.696C476.136 716.402 476.276 716.179 476.513 716.04C477.741 715.3 481.957 717.296 482.432 717.519C482.53 717.561 482.585 717.658 482.572 717.77C482.572 717.868 482.502 717.938 482.418 717.966V717.979ZM476.848 716.43C476.848 716.43 476.792 716.458 476.764 716.472C476.667 716.528 476.625 716.612 476.625 716.737C476.625 717.072 476.722 717.324 476.946 717.505C477.602 718.049 479.305 718.105 481.566 717.658C479.905 716.933 477.63 716.137 476.862 716.43H476.848Z" fill="#B5CCFF"/>
<path d="M482.418 717.979C482.418 717.979 482.292 718.007 482.237 717.979C480.966 717.463 478.425 715.3 478.579 714.141C478.607 713.862 478.802 713.527 479.459 713.444C479.961 713.374 480.422 713.513 480.827 713.821C482.181 714.853 482.558 717.617 482.572 717.728C482.572 717.812 482.544 717.896 482.474 717.952C482.46 717.966 482.432 717.979 482.418 717.979ZM479.277 713.974C479.082 714.044 479.068 714.155 479.054 714.197C478.97 714.895 480.701 716.598 481.999 717.324C481.832 716.514 481.413 714.881 480.519 714.197C480.212 713.96 479.877 713.862 479.514 713.918C479.417 713.918 479.333 713.946 479.263 713.974H479.277Z" fill="#B5CCFF"/>
<path d="M540.658 716.542L551.91 716.235C552.329 716.235 552.706 716.5 552.817 716.905L555.177 725.963C555.428 726.898 554.73 727.819 553.753 727.833C549.69 727.875 543.813 727.791 538.704 727.93C532.743 728.098 528.946 727.805 521.938 727.986C517.709 728.098 516.382 723.869 518.141 723.436C526.14 721.469 531.375 721.859 538.188 717.393C538.927 716.905 539.751 716.556 540.644 716.528L540.658 716.542Z" fill="#222222"/>
<path d="M539.695 717.979C539.695 717.979 539.681 717.979 539.667 717.979C538.02 718.356 535.075 718.831 533.916 717.868C533.567 717.575 533.399 717.184 533.413 716.696C533.413 716.402 533.553 716.179 533.79 716.04C535.019 715.3 539.235 717.296 539.709 717.519C539.807 717.561 539.863 717.658 539.849 717.77C539.849 717.868 539.779 717.938 539.695 717.966V717.979ZM534.125 716.43C534.125 716.43 534.069 716.458 534.041 716.472C533.944 716.528 533.902 716.612 533.902 716.737C533.902 717.072 534 717.324 534.223 717.505C534.879 718.049 536.582 718.105 538.844 717.658C537.182 716.933 534.907 716.137 534.139 716.43H534.125Z" fill="#B5CCFF"/>
<path d="M539.695 717.979C539.695 717.979 539.57 718.007 539.514 717.979C538.243 717.463 535.703 715.3 535.856 714.141C535.884 713.862 536.08 713.527 536.736 713.444C537.238 713.374 537.699 713.513 538.104 713.821C539.458 714.853 539.835 717.617 539.849 717.728C539.849 717.812 539.821 717.896 539.751 717.952C539.737 717.966 539.709 717.979 539.695 717.979ZM536.554 713.974C536.359 714.044 536.345 714.155 536.331 714.197C536.247 714.895 537.978 716.598 539.276 717.324C539.109 716.514 538.69 714.881 537.797 714.197C537.49 713.96 537.155 713.862 536.792 713.918C536.694 713.918 536.61 713.946 536.54 713.974H536.554Z" fill="#B5CCFF"/>
<path d="M561.333 494.274C566.749 517.749 557.452 702.32 557.452 702.32H539.5L531.822 548.494L503.539 702.32L484.344 700.925C496.894 581.766 507.978 510.631 507.978 510.631L507.951 501.643L561.319 494.288L561.333 494.274Z" fill="#222222"/>
<path opacity="0.4" d="M484.359 700.911L503.553 702.307L525.805 581.222L531.822 548.494L539.5 702.307H557.452C557.452 702.307 566.749 517.735 561.333 494.274L507.965 501.629L507.993 510.617C507.993 510.617 496.908 581.752 484.359 700.911Z" fill="#FBFBFB"/>
<path d="M551.659 407.369C551.017 418.869 551.505 430.327 552.51 441.003C553.25 448.819 554.297 456.202 555.4 462.859C557.983 478.476 560.914 490.185 561.333 494.274C553.515 495.349 524.032 499.424 507.965 501.629C488.505 447.228 495.833 415.575 495.833 415.575C495.833 415.575 501.403 413.202 508.076 411.388C508.956 411.151 509.849 410.927 510.77 410.718C516.689 409.35 526.601 408.206 533.455 407.592C534.893 407.466 536.373 407.369 537.797 407.299C545.084 406.964 551.659 407.383 551.659 407.383V407.369Z" fill="#0A0A09"/>
<path d="M523.097 382.889C523.488 390.356 524.284 404.368 530.496 407.927C530.496 407.927 526.629 415.282 518.267 416.035C511.943 416.608 512.362 410.369 512.362 410.369C516.019 407.634 515.14 403.014 512.362 397.809L523.111 382.889H523.097Z" fill="#FDD2CB"/>
<path opacity="0.2" d="M518.714 388.974L512.348 397.795C513.018 399.023 513.604 400.293 514.023 401.563C516.969 400.39 520.319 396.036 519.844 392.784C519.607 391.165 519.16 389.644 518.714 388.974Z" fill="black"/>
<path d="M495.875 367.872C494.661 371.752 495.331 379.707 500.733 377.111C506.136 374.516 497.969 361.215 495.875 367.872Z" fill="#222222"/>
<path d="M523.795 373.106C524.395 383.057 525.247 388.863 520.85 394.501C514.247 402.972 501.459 399.818 497.886 390.216C494.675 381.577 494.242 366.742 503.47 361.732C512.557 356.791 523.195 363.169 523.795 373.12V373.106Z" fill="#FDD2CB"/>
<path d="M516.815 367.691V356.568C516.815 356.568 528.653 355.689 528.137 361.746C534.698 364.997 531.599 375.199 522.79 380.196C517.96 376.33 518.518 367.035 518.518 367.035C518.002 367.272 517.429 367.482 516.829 367.691H516.815Z" fill="#222222"/>
<path d="M528.611 380.88C528.137 383.517 526.475 385.681 524.633 386.895C521.855 388.723 519.44 386.476 519.342 383.336C519.258 380.503 520.584 376.135 523.781 375.576C526.936 375.018 529.17 377.865 528.611 380.88Z" fill="#FDD2CB"/>
<path d="M509.081 377.544C509.179 378.354 508.83 379.051 508.3 379.107C507.769 379.163 507.267 378.563 507.169 377.753C507.071 376.944 507.42 376.246 507.951 376.19C508.481 376.135 508.984 376.735 509.081 377.544Z" fill="#222222"/>
<path d="M499.966 378.563C500.063 379.372 499.714 380.07 499.184 380.126C498.653 380.182 498.151 379.582 498.053 378.772C497.955 377.963 498.304 377.265 498.835 377.209C499.365 377.153 499.868 377.753 499.966 378.563Z" fill="#222222"/>
<path d="M502.911 378.647C502.911 378.647 501.571 383.322 499.798 385.722C501.362 386.825 503.721 385.946 503.721 385.946L502.911 378.647Z" fill="#FFC3C1"/>
<path d="M508.411 388.542C508.09 388.625 507.741 388.681 507.364 388.723C507.239 388.737 507.113 388.639 507.099 388.514C507.085 388.388 507.183 388.262 507.309 388.248C510.854 387.844 512.208 385.206 512.222 385.178C512.278 385.066 512.418 385.011 512.543 385.066C512.669 385.122 512.711 385.262 512.655 385.387C512.599 385.499 511.441 387.774 508.411 388.542Z" fill="#222222"/>
<path d="M511.538 374.292C511.371 374.334 511.203 374.292 511.078 374.153C509.598 372.618 507.867 372.911 507.853 372.911C507.588 372.952 507.336 372.785 507.295 372.534C507.239 372.283 507.42 372.031 507.671 371.976C507.769 371.962 509.933 371.585 511.776 373.497C511.957 373.692 511.957 373.985 511.776 374.167C511.72 374.223 511.636 374.264 511.566 374.278L511.538 374.292Z" fill="#222222"/>
<path d="M495.652 375.869C495.568 375.897 495.471 375.883 495.373 375.869C495.122 375.786 494.996 375.506 495.08 375.255C495.945 372.771 498.067 372.255 498.165 372.213C498.416 372.157 498.681 372.31 498.751 372.562C498.821 372.813 498.667 373.078 498.402 373.134C498.318 373.148 496.671 373.58 495.987 375.576C495.931 375.73 495.806 375.841 495.652 375.883V375.869Z" fill="#222222"/>
<path d="M522.064 371.822C522.064 371.822 515.126 369.282 511.901 365.235C511.901 365.235 505.564 366.895 504.265 369.463C504.265 369.463 502.074 367.621 503.707 365.235C503.707 365.235 498.961 366.24 498.025 369.463C498.025 369.463 495.652 368.654 495.806 365.235C495.806 365.235 493.698 366.03 493.028 369.463C493.028 369.463 487.779 358.564 505.075 355.437C505.075 355.437 503.707 354.865 501.027 354.753C501.027 354.753 513.088 349.883 522.664 354.349C532.241 358.801 530.482 367.37 522.064 371.836V371.822Z" fill="#222222"/>
<path d="M565.451 503.667L548.713 505.9C548.713 505.9 541.803 457.625 538.76 442.036V408.736L547.513 406.433L554.255 408.736C555.875 414.137 557.299 421.227 558.541 429.112C559.365 434.332 560.105 439.915 560.761 445.567C561.668 453.271 562.422 461.114 563.064 468.455C564.069 480.304 564.739 490.799 565.102 497.191C565.34 501.266 565.451 503.667 565.451 503.667Z" fill="#E1ECFF"/>
<path d="M538.76 442.022C538.76 442.022 540.156 418.534 547.513 406.42C547.513 406.42 547.331 402.958 545.852 402.4C544.386 401.842 538.76 405.163 538.76 405.163C538.76 405.163 535.256 402.777 534.474 403.88C533.693 404.982 531.836 412.449 538.76 442.036V442.022Z" fill="#B5CCFF"/>
<path opacity="0.7" d="M538.76 442.022C538.76 442.022 540.156 418.534 547.513 406.42C547.513 406.42 547.331 402.958 545.852 402.4C544.386 401.842 538.76 405.163 538.76 405.163C538.76 405.163 535.256 402.777 534.474 403.88C533.693 404.982 531.836 412.449 538.76 442.036V442.022Z" fill="white"/>
<path d="M500.677 510.129L502.59 511.51C502.59 511.51 499.826 495.949 500.943 456.592C500.999 454.694 501.068 452.866 501.138 451.122C502.562 417.822 507.727 411.765 508.062 411.402L503.232 413.049L494.479 416.063C491.897 444.478 500.677 510.129 500.677 510.129Z" fill="#E1ECFF"/>
<path d="M501.431 445.386C501.431 445.386 496.601 422.567 498.039 414.696C499.477 406.824 504.628 410.327 504.628 410.327C504.628 410.327 509.361 406.503 510.77 410.718C510.77 410.718 504.265 415.296 501.431 445.399V445.386Z" fill="#E1ECFF"/>
<path opacity="0.7" d="M501.431 445.386C501.431 445.386 496.601 422.567 498.039 414.696C499.477 406.824 504.628 410.327 504.628 410.327C504.628 410.327 509.361 406.503 510.77 410.718C510.77 410.718 504.265 415.296 501.431 445.399V445.386Z" fill="white"/>
<path opacity="0.2" d="M560.761 445.567C553.613 441.562 552.664 431.108 552.664 431.108C553.097 430.941 555.749 430.034 558.541 429.113C559.365 434.332 560.105 439.915 560.761 445.567Z" fill="black"/>
<path opacity="0.2" d="M525.805 581.222L531.822 548.494L530.663 531.175C530.663 531.175 522.413 561.209 525.805 581.222Z" fill="black"/>
<path opacity="0.2" d="M565.102 497.191C560.607 496.884 556.712 496.591 556.712 496.591L555.861 478.322C555.861 478.322 557.313 477.108 560.565 477.457C560.565 477.457 562.031 473.884 563.064 468.455C564.069 480.304 564.739 490.799 565.102 497.191Z" fill="black"/>
<path d="M566.638 468.427L557.885 482.481L564.809 486.459L573.031 473.801L566.638 468.427Z" fill="#FDD2CB"/>
<path d="M553.906 408.555C559.797 409.197 584.841 443.557 585.944 453.913C587.047 464.268 571.23 482.146 571.23 482.146L560.663 475.936C560.663 475.936 571.398 459.453 571.942 455.057C572.487 450.661 552.329 432.629 552.329 432.629C552.329 432.629 550.123 427.326 549.844 419.706C549.565 412.086 553.892 408.569 553.892 408.569L553.906 408.555Z" fill="#E1ECFF"/>
<path d="M555.861 478.322C555.861 478.322 564.865 480.248 568.494 485.915C568.494 485.915 564.739 497.708 562.045 498.992C559.351 500.276 552.664 500.276 552.664 500.276C552.664 500.276 552.231 487.157 555.861 478.322Z" fill="#E1ECFF"/>
<line x1="108" y1="727.5" x2="612" y2="727.5" stroke="white"/>
<g clip-path="url(#clip2_363_3809)">
<path d="M105.583 541.583L121.426 557.426" stroke="white" stroke-width="5" stroke-miterlimit="10"/>
<path d="M121.426 541.583L105.583 557.426" stroke="white" stroke-width="5" stroke-miterlimit="10"/>
</g>
<g clip-path="url(#clip3_363_3809)">
<path d="M181.941 1065.94C205.106 1042.77 205.106 1005.21 181.941 982.05C158.776 958.885 121.218 958.885 98.0533 982.05C74.8884 1005.21 74.8884 1042.77 98.0533 1065.94C121.218 1089.1 158.776 1089.1 181.941 1065.94Z" stroke="white" stroke-miterlimit="10"/>
<path d="M139.993 1073.67C167.43 1073.67 189.672 1051.43 189.672 1023.99C189.672 996.556 167.43 974.314 139.993 974.314C112.556 974.314 90.3143 996.556 90.3143 1023.99C90.3143 1051.43 112.556 1073.67 139.993 1073.67Z" stroke="white" stroke-miterlimit="10"/>
<path d="M139.993 1064.02C162.1 1064.02 180.02 1046.1 180.02 1023.99C180.02 1001.89 162.1 983.966 139.993 983.966C117.887 983.966 99.9662 1001.89 99.9662 1023.99C99.9662 1046.1 117.887 1064.02 139.993 1064.02Z" stroke="white" stroke-miterlimit="10"/>
<path d="M165.824 1039.98C174.644 1025.71 170.226 1006.99 155.956 998.173C141.686 989.352 122.968 993.77 114.148 1008.04C105.328 1022.31 109.746 1041.03 124.015 1049.85C138.285 1058.67 157.003 1054.25 165.824 1039.98Z" stroke="white" stroke-miterlimit="10"/>
<path d="M139.993 1044.73C151.446 1044.73 160.73 1035.45 160.73 1023.99C160.73 1012.54 151.446 1003.26 139.993 1003.26C128.541 1003.26 119.256 1012.54 119.256 1023.99C119.256 1035.45 128.541 1044.73 139.993 1044.73Z" stroke="white" stroke-miterlimit="10"/>
</g>
<defs>
<clipPath id="clip0_363_3809">
<rect width="120" height="16.11" fill="white" transform="matrix(-1 0 0 1 120 139)"/>
</clipPath>
<clipPath id="clip1_363_3809">
<rect width="120" height="16.11" fill="white" transform="translate(600 859)"/>
</clipPath>
<clipPath id="clip2_363_3809">
<rect width="19" height="19" fill="white" transform="translate(104 540)"/>
</clipPath>
<clipPath id="clip3_363_3809">
<rect width="120" height="120" fill="white" transform="translate(80 964)"/>
</clipPath>
</defs>
</svg>
