<svg width="18" height="21" viewBox="0 0 18 21" fill="none" xmlns="http://www.w3.org/2000/svg">
<path fill-rule="evenodd" clip-rule="evenodd" d="M11.1022 1.36C11.1022 0.88 10.7122 0.5 10.2422 0.5C4.36219 0.5 0.242188 4.62 0.242188 10.51C0.242188 16.4 4.35219 20.51 10.2422 20.51C10.7222 20.51 11.1022 20.12 11.1022 19.65V11.3099H15.2028L13.6428 12.8699C13.3528 13.1599 13.3528 13.6399 13.6428 13.9299C13.7928 14.0799 13.9828 14.1499 14.1728 14.1499C14.3628 14.1499 14.5528 14.0799 14.7028 13.9299L17.5428 11.0799C17.8328 10.7999 17.8328 10.3299 17.5428 10.0399L14.7028 7.18991C14.4128 6.89991 13.9328 6.89991 13.6428 7.18991C13.3528 7.47991 13.3528 7.95991 13.6428 8.24991L15.2028 9.80991H11.1022V1.36ZM11.1022 9.80991H5.63281C5.22281 9.80991 4.88281 10.1499 4.88281 10.5599C4.88281 10.9699 5.22281 11.3099 5.63281 11.3099H11.1022V9.80991Z" fill="#292D32"/>
</svg>
