<svg width="25" height="24" viewBox="0 0 25 24" fill="none" xmlns="http://www.w3.org/2000/svg">
<path d="M12.2539 2C9.63391 2 7.50391 4.13 7.50391 6.75C7.50391 9.32 9.51391 11.4 12.1339 11.49C12.2139 11.48 12.2939 11.48 12.3539 11.49C12.3739 11.49 12.3839 11.49 12.4039 11.49C12.4139 11.49 12.4139 11.49 12.4239 11.49C14.9839 11.4 16.9939 9.32 17.0039 6.75C17.0039 4.13 14.8739 2 12.2539 2Z" fill="#292D32"/>
<path d="M17.3348 14.1499C14.5448 12.2899 9.99484 12.2899 7.18484 14.1499C5.91484 14.9999 5.21484 16.1499 5.21484 17.3799C5.21484 18.6099 5.91484 19.7499 7.17484 20.5899C8.57484 21.5299 10.4148 21.9999 12.2548 21.9999C14.0948 21.9999 15.9348 21.5299 17.3348 20.5899C18.5948 19.7399 19.2948 18.5999 19.2948 17.3599C19.2848 16.1299 18.5948 14.9899 17.3348 14.1499Z" fill="#292D32"/>
</svg>
